<svg version="1.1" xmlns="http://www.w3.org/2000/svg" x="0px" y="0px" viewBox="0 0 285.5 274.6">
<style type="text/css">
	.st1{fill-rule:evenodd;clip-rule:evenodd;fill:#FFFFFF;}
	.st2{fill:#FFFFFF;}
</style>
<g>
	<g>
		<path class="st1" d="M204.5,0H69.1C66.5,40.8,37.4,68.9,0,78.5c10.6,89,58.8,160.1,142.6,196.1c71.2-30.8,123.7-88.7,139.2-161.3
			C295.5,51.9,270.8-0.3,204.5,0z M272.2,111.2c-15.3,70.5-64.6,123.1-129.5,152.6C69,231,22.9,167.4,10.9,85.6
			C45.5,73.7,72,47,77.9,10h126.6C264.5,9.7,284.2,56.3,272.2,111.2z"/>
		<path class="st2" d="M225.7,99.1c1.4,0.1,2.7-1,2.8-2.5c0.1-1.4-1-2.7-2.5-2.8c-0.1,0-0.2,0-0.3,0h-69.4l2.4,10.2L225.7,99.1z"/>
		<path class="st2" d="M129,93.9l27.6-41l17.6-6.1c2.2-0.8,1.6-2.4,0.4-2.4h-16.6l-1.8-17.9c0-0.6-0.4-1-1-1c-0.6,0-1,0.4-1,1l0,0
			l-5.4,18h-17.2c-1.5,0-1.7,1.7,0,2.4l15.7,5.7l-36.9,41.4H32.4c-3.1,0-3.5,5.2,0,5.4l67.8,8.6c-2.3,4.2-6.1,8.2-7.5,12.8
			c-1.4,4.8,2.4,8.6,6.1,7.7c6.1-1.3,16.1-13.9,20.2-19l1.6-2.5l14.5-1.1c1.2-4.7,2.2-8.8,3.1-12L129,93.9z"/>
		<path class="st1" d="M150.5,166.3l-7.4-36.3l-8.7,36.3L150.5,166.3z M195.1,177.7l17-20.8v-0.7l0,0c0-2.3-1.3-4.5-5.5-4.5l0,0
			v-4.9h21.1v4.9l0,0c-5.2,0-5.4,2-5.4,7.2l0,0v24.1l0,0c0,5.3,0.4,7.2,5.4,7.2l0,0v4.8h-21.1v-4.8l0,0c4.8,0,5.5-1.7,5.5-7.2l0,0
			v-18.8l-17,20.9v0.9l0,0c0,2.9,1.6,4.2,5.5,4.2l0,0v4.8h-52.5v-4.8l0,0c3.8,0,6.2-0.3,6.2-4.1c0-2.3-1-8.1-2.6-14.4h-18.9
			l-2.5,9.7l0,0c-1.7,6.4-1.2,8.8,5.6,8.8l0,0v4.8H92.2v-4.8l0,0c5.2,0,5.8-1.7,5.8-7.2l0,0v-22.5l-13.3,32.9l-13.4-34v24l0,0
			c0,4.6,0.6,6.8,5.6,6.8l0,0v4.8H60.7v-4.8l0,0c5.5,0,5.8-3.3,5.8-7.9l0,0v-23.4l0,0c0-4.2,0-7.2-5.3-7.2l0,0v-4.9h17.2l9.4,24.9
			l9.4-24.9h16.6v4.9l0,0c-5.2,0-5.3,2-5.3,7.2l0,0v24.1l0,0c0,4.6,0.4,6.1,1.9,6.5c3.2,1.1,9.1,0.9,10.8-2.6
			c1.6-3.4,2.9-7,3.8-10.7l0,0l22.4-88l20.2,86.4l0,0c2.2,9.4,3.5,11.7,5.5,13.7c2,1.7,8.7,3,11,0.4c0.6-0.6,0.9-1.6,0.9-5.8l0,0
			v-24.1l0,0c0-5.5-0.4-7.2-5.5-7.2l0,0v-4.9h21.2v4.9l0,0c-5.2,0-5.5,2.2-5.5,7.2l0,0L195.1,177.7L195.1,177.7z"/>
	</g>
</g>
</svg>
